HIERARCHY
ROOT Hips
{
	OFFSET -240.519104 89.812180 402.348785
	CHANNELS 6 Xposition Yposition Zposition Zrotation Yrotation Xrotation 
	JOINT LeftUpLeg
	{
		OFFSET 0.103456 1.857834 10.548498
		CHANNELS 3 Zrotation Yrotation Xrotation
		JOINT LeftLeg
		{
			OFFSET 43.499992 -0.000040 -0.000011
			CHANNELS 3 Zrotation Yrotation Xrotation
			JOINT LeftFoot
			{
				OFFSET 42.372192 0.000015 -0.000003
				CHANNELS 3 Zrotation Yrotation Xrotation
				JOINT LeftToe
				{
					OFFSET 17.300003 0.000002 0.000015
					CHANNELS 3 Zrotation Yrotation Xrotation
					End Site
					{
						OFFSET 0.000000 0.000000 0.000000
					}
				}
			}
		}
	}
	JOINT RightUpLeg
	{
		OFFSET 0.103455 1.857831 -10.548502
		CHANNELS 3 Zrotation Yrotation Xrotation
		JOINT RightLeg
		{
			OFFSET 43.500038 -0.000019 0.000008
			CHANNELS 3 Zrotation Yrotation Xrotation
			JOINT RightFoot
			{
				OFFSET 42.372265 -0.000019 0.000008
				CHANNELS 3 Zrotation Yrotation Xrotation
				JOINT RightToe
				{
					OFFSET 17.299984 -0.000007 0.000027
					CHANNELS 3 Zrotation Yrotation Xrotation
					End Site
					{
						OFFSET 0.000000 0.000000 0.000000
					}
				}
			}
		}
	}
	JOINT Spine
	{
		OFFSET 6.901969 -2.603726 -0.000003
		CHANNELS 3 Zrotation Yrotation Xrotation
		JOINT Spine1
		{
			OFFSET 12.588097 -0.000010 0.000004
			CHANNELS 3 Zrotation Yrotation Xrotation
			JOINT Spine2
			{
				OFFSET 12.343201 0.000004 0.000005
				CHANNELS 3 Zrotation Yrotation Xrotation
				JOINT Neck
				{
					OFFSET 25.832905 0.000013 -0.000010
					CHANNELS 3 Zrotation Yrotation Xrotation
					JOINT Head
					{
						OFFSET 11.766600 -0.000021 0.000000
						CHANNELS 3 Zrotation Yrotation Xrotation
						End Site
						{
							OFFSET 0.000000 0.000000 0.000000
						}
					}
				}
				JOINT LeftShoulder
				{
					OFFSET 19.745911 -1.480368 6.000092
					CHANNELS 3 Zrotation Yrotation Xrotation
					JOINT LeftArm
					{
						OFFSET 11.284128 -0.000006 -0.000023
						CHANNELS 3 Zrotation Yrotation Xrotation
						JOINT LeftForeArm
						{
							OFFSET 33.000057 -0.000001 0.000025
							CHANNELS 3 Zrotation Yrotation Xrotation
							JOINT LeftHand
							{
								OFFSET 25.200012 0.000014 0.000015
								CHANNELS 3 Zrotation Yrotation Xrotation
								End Site
								{
									OFFSET 0.000000 0.000000 0.000000
								}
							}
						}
					}
				}
				JOINT RightShoulder
				{
					OFFSET 19.746101 -1.480364 -6.000078
					CHANNELS 3 Zrotation Yrotation Xrotation
					JOINT RightArm
					{
						OFFSET 11.284142 -0.000002 -0.000011
						CHANNELS 3 Zrotation Yrotation Xrotation
						JOINT RightForeArm
						{
							OFFSET 33.000099 0.000007 0.000015
							CHANNELS 3 Zrotation Yrotation Xrotation
							JOINT RightHand
							{
								OFFSET 25.199781 0.000143 0.000408
								CHANNELS 3 Zrotation Yrotation Xrotation
								End Site
								{
									OFFSET 0.000000 0.000000 0.000000
								}
							}
						}
					}
				}
			}
		}
	}
}
MOTION
Frames: 7
Frame Time: 0.033333
227.257401 86.51635 246.613205 92.526865 -7.687415 -3.185914 142.847683 -2.781205 176.293944 -75.780116 2.178493 -7.375478 80.177917 4.600685 -2.16098 21.454558 0.003089 0.0 171.778711 -5.323305 -167.898672 -41.457875 -3.845088 3.958382 94.022636 -1.575695 8.553538 21.45456 -0.00311 -1.7e-05 6.887435 0.857222 1.813716 3.788881 1.655294 3.654558 3.471324 1.677456 3.644515 -3.293836 1.177652 2.560789 -21.388025 -8.659279 6.468038 -139.190868 -82.311573 -42.860595 28.955334 53.506715 48.715078 -113.216403 3.090558 3.11261 -5.186566 -3.94651 10.277212 165.484473 77.934255 -13.333135 -5.884661 -47.880285 -19.937445 -104.820687 1.569251 -3.118558 -14.729641 6.309609 -14.843094 
221.666901 89.011688 246.402603 93.042702 -7.336858 -1.403321 143.825862 -0.785996 176.02295 -61.460788 1.112843 -6.21311 78.497151 4.115828 -1.004539 21.454553 0.003093 -1e-06 175.51421 -4.691102 -167.755347 -37.586504 -3.29931 3.414764 82.650938 -0.2341 9.33586 21.454562 -0.003108 -1.8e-05 6.438905 0.578573 2.389746 2.888169 1.098425 4.793136 2.571191 1.127455 4.786439 -2.658124 -0.547389 1.125136 -20.10192 -6.472825 3.582924 -135.371467 -81.715557 -46.751132 28.417856 50.092758 47.62208 -115.7188 3.411026 3.196291 -5.077702 -4.037751 10.564393 161.478103 79.16386 -17.349954 -4.96584 -48.912989 -23.497563 -107.638597 1.340585 -3.226671 -14.708312 5.878016 -15.520686 
216.110794 91.108521 246.326294 93.688598 -7.168657 -0.022278 146.019896 0.656998 173.994875 -46.10807 0.870363 -2.490917 76.520453 1.337672 -1.632999 21.454557 0.003093 1e-06 177.082981 -3.6082 -165.553417 -36.479173 -3.964569 1.532405 69.594225 2.584507 10.398681 21.454557 -0.003109 -1.7e-05 6.01128 0.382768 2.853958 2.027711 0.717002 5.714089 1.711318 0.751576 5.709682 -2.088937 -2.510706 0.107656 -19.316205 -4.211371 1.14221 -132.881754 -81.061054 -49.303966 28.90992 48.30707 46.738971 -116.913017 3.47988 3.241446 -4.329496 -3.606567 12.400432 156.305669 79.93227 -22.556872 -3.694026 -49.059125 -27.568867 -109.449601 1.283025 -3.301726 -13.840752 4.509947 -15.887233 
210.705399 92.321388 246.152603 94.474541 -7.911718 1.08197 147.997413 1.252198 170.637537 -33.428223 1.462429 2.042257 75.496711 -1.875307 -1.57018 21.454551 0.003091 2e-06 176.637913 -3.190401 -162.992301 -39.197937 -5.857754 -1.007917 61.429499 6.27376 12.53902 21.454558 -0.003108 -1.8e-05 5.57103 0.416286 3.15215 1.15139 0.803126 6.308183 0.835378 0.841266 6.303251 -1.657843 -4.334064 -0.395747 -18.576474 -2.297919 -0.552075 -131.515497 -80.651003 -50.709391 31.157981 47.930699 46.540093 -117.3993 3.55923 3.256199 -3.584058 -2.970798 14.524689 151.882206 79.974029 -27.034842 -2.59656 -48.213322 -31.377892 -110.391006 1.32274 -3.345334 -12.89216 3.160074 -15.829155 
205.663803 92.443649 245.867996 94.964218 -8.946649 2.460022 148.903465 1.964799 169.356549 -27.207381 1.908482 1.817456 73.099621 -2.025594 -2.403696 21.454555 0.003094 -5e-06 174.402323 -3.558593 -164.179907 -45.877199 -6.592363 -0.836129 58.232793 7.617319 14.68226 21.45456 -0.003108 -1.7e-05 5.267241 0.613309 3.166815 0.55531 1.213527 6.336476 0.239254 1.25183 6.329077 -1.621709 -6.144071 -0.384169 -17.9933 -0.776342 -1.545852 -130.659374 -80.518279 -51.583463 34.649246 48.992209 47.429168 -117.654899 3.578884 3.265443 -3.43605 -2.927536 15.530681 147.54199 79.654055 -31.448431 -1.602815 -47.016031 -34.496195 -110.80941 1.515124 -3.37683 -12.73103 2.344284 -16.947916 
200.969696 91.328217 245.470901 94.21287 -9.356178 4.826477 149.892285 3.106201 168.476875 -27.217821 2.11083 -0.995129 69.635124 -0.175677 -2.631121 21.45455 0.003094 -1e-06 172.175381 -3.492403 -167.110058 -55.116314 -5.673918 1.410062 59.899734 7.795156 19.309682 21.454558 -0.003109 -1.7e-05 5.404893 0.789707 2.798381 0.835236 1.560987 5.602396 0.518676 1.594874 5.592911 -2.684726 -7.43504 0.059974 -17.331508 -0.192165 -1.6827 -128.78349 -80.208025 -53.500301 37.874492 51.380836 48.599036 -118.046091 3.790218 3.267126 -3.535593 -3.16149 14.23801 143.974596 79.606169 -35.060611 -1.046688 -46.380553 -36.105408 -110.638587 1.681901 -3.381067 -12.827232 1.761142 -18.20749 
196.211105 89.366592 245.057602 92.259962 -8.974193 7.941711 151.903831 4.161698 165.401896 -32.194776 1.772273 -0.453715 74.207014 4.507387 13.718705 21.454553 0.003094 1e-06 170.07421 -2.348909 -168.782936 -65.894086 -4.468205 4.142175 63.280139 6.078487 21.645739 21.454563 -0.00311 -1.7e-05 5.905197 0.79987 2.217088 1.828129 1.565835 4.446498 1.510955 1.592771 4.436992 -3.845331 -6.96488 0.443185 -17.15332 -1.083858 -0.9227 -127.090641 -80.141724 -55.217671 39.067955 54.565985 49.035653 -118.296691 3.963808 3.265579 -3.780496 -4.032205 11.97493 143.850368 79.659 -35.182526 -0.385617 -46.668548 -36.288839 -109.597092 1.717437 -3.338391 -12.798203 1.62883 -18.18405 
